<svg width="43" height="43" viewBox="0 0 43 43" fill="none" xmlns="http://www.w3.org/2000/svg">
<g clip-path="url(#clip0)">
<path d="M21.5 43C33.3741 43 43 33.3741 43 21.5C43 9.62588 33.3741 0 21.5 0C9.62588 0 0 9.62588 0 21.5C0 33.3741 9.62588 43 21.5 43Z" fill="#2F2F2F"/>
<path d="M20.75 19.3315V38.8311C20.75 40.8705 20.2088 42.4541 19.1265 43.5821C18.0441 44.7214 16.4832 45.2911 14.4438 45.2911C13.5894 45.2911 12.7747 45.1942 12 45.0005V41.087C12.5924 41.1895 13.1108 41.2408 13.5552 41.2408C15.0477 41.2408 15.7939 40.4489 15.7939 38.8653V19.3315H20.75ZM15.4009 14.5464C15.4009 13.8058 15.6458 13.1963 16.1357 12.7178C16.637 12.2393 17.3149 12 18.1694 12C19.0239 12 19.6961 12.2393 20.186 12.7178C20.6873 13.1963 20.938 13.8058 20.938 14.5464C20.938 15.2983 20.6816 15.9136 20.1689 16.3921C19.6676 16.8706 19.0011 17.1099 18.1694 17.1099C17.3377 17.1099 16.6655 16.8706 16.1528 16.3921C15.6515 15.9136 15.4009 15.2983 15.4009 14.5464ZM37.8398 31.2945C37.8398 30.3261 37.498 29.5855 36.8144 29.0728C36.1308 28.5487 34.9004 28.0018 33.123 27.4322C31.3457 26.8511 29.9386 26.2815 28.9018 25.7232C26.0763 24.1965 24.6635 22.14 24.6635 19.5537C24.6635 18.2093 25.0395 17.013 25.7915 15.9648C26.5548 14.9053 27.6429 14.0793 29.0556 13.4868C30.4798 12.8944 32.0748 12.5981 33.8408 12.5981C35.6181 12.5981 37.2018 12.9229 38.5918 13.5723C39.9817 14.2103 41.0584 15.116 41.8217 16.2896C42.5965 17.4631 42.9839 18.7961 42.9839 20.2886H37.8569C37.8569 19.1493 37.498 18.2663 36.7802 17.6396C36.0625 17.0016 35.0542 16.6826 33.7553 16.6826C32.5021 16.6826 31.528 16.9504 30.833 17.4858C30.138 18.0099 29.7905 18.7049 29.7905 19.5708C29.7905 20.3797 30.195 21.0576 31.0039 21.6045C31.8242 22.1514 33.0262 22.6641 34.6098 23.1426C37.5265 24.0199 39.6513 25.108 40.9843 26.4068C42.3173 27.7056 42.9839 29.3235 42.9839 31.2603C42.9839 33.4136 42.1692 35.1055 40.54 36.336C38.9108 37.5551 36.7176 38.1646 33.9604 38.1646C32.0464 38.1646 30.3032 37.8171 28.7309 37.1221C27.1587 36.4157 25.9567 35.453 25.125 34.2339C24.3047 33.0149 23.8945 31.6021 23.8945 29.9957H29.0385C29.0385 32.7414 30.6792 34.1143 33.9604 34.1143C35.1795 34.1143 36.1308 33.8693 36.8144 33.3794C37.498 32.8781 37.8398 32.1832 37.8398 31.2945Z" fill="#F1F1F1"/>
</g>
<defs>
<clipPath id="clip0">
<rect width="43" height="43" fill="white"/>
</clipPath>
</defs>
</svg>
