<svg width="96" height="103" viewBox="0 0 96 103" fill="none" xmlns="http://www.w3.org/2000/svg">
<path d="M37.5093 2.9L36.7176 0C30.8279 1.58141 25.3091 4.33248 20.4832 8.09259C15.6574 11.8527 11.6212 16.5465 8.61035 21.9L11.1835 23.4C14.01 18.3921 17.7925 14.0013 22.3116 10.4822C26.8308 6.96312 31.9966 4.38587 37.5093 2.9Z" fill="#2F2F2F"/>
<path d="M16.231 26.3L18.8042 27.8C21.0619 23.8169 24.0786 20.3255 27.6799 17.5277C31.2813 14.7299 35.3958 12.6812 39.7856 11.5L38.9938 8.59998C34.2212 9.86268 29.7476 12.0797 25.8378 15.1199C21.9279 18.1601 18.6612 21.9618 16.231 26.3Z" fill="#2F2F2F"/>
<path d="M93.5259 33L90.6558 33.8C92.1604 39.3592 92.559 45.1647 91.8285 50.8806C91.098 56.5965 89.253 62.1093 86.4001 67.1L88.9733 68.6C95.0759 57.8036 96.7121 45.0091 93.5259 33Z" fill="#2F2F2F"/>
<path d="M85.1135 35.3L82.2434 36.1C84.6229 45.0691 83.4142 54.624 78.8784 62.7L81.4516 64.2C86.3812 55.4264 87.6966 45.0454 85.1135 35.3Z" fill="#2F2F2F"/>
<path d="M69.0568 47.0193C68.1048 46.496 67.0626 46.1585 65.9854 46.0248L66.5799 45.0303C67.6265 43.1545 67.9105 40.9454 67.3725 38.8644C66.8091 36.8041 65.4554 35.0518 63.6076 33.9913C62.6843 33.4834 61.6775 33.1465 60.6353 32.9968L61.1307 32.1018C62.1773 30.226 62.4613 28.0169 61.9233 25.9359C61.3599 23.8756 60.0062 22.1233 58.1584 21.0628C56.2897 20.0122 54.0888 19.7272 52.0157 20.2672C49.9631 20.8327 48.2174 22.1916 47.1609 24.0463L46.4674 25.0408C45.7704 24.2421 44.9708 23.5398 44.0896 22.9524C42.2221 21.9056 40.0182 21.6422 37.9581 22.2197C35.8981 22.7972 34.149 24.1688 33.0921 26.0353L17.339 54.0802C17.339 54.1797 17.2399 54.2791 16.9427 54.2791C16.6455 54.2791 16.6455 54.0802 16.6455 53.9808V42.4446C16.6484 41.3494 16.4305 40.2649 16.0048 39.2565C15.5791 38.2481 14.9545 37.3367 14.1686 36.577C13.4007 35.8097 12.4885 35.2035 11.4849 34.7938C10.4813 34.384 9.40646 34.1788 8.32307 34.1902H8.22399C6.03152 34.2086 3.93553 35.0978 2.39448 36.6633C0.853421 38.2288 -0.00726752 40.3432 0.000667638 42.544V73.1746C-0.0432611 79.7324 2.08172 86.1195 6.04257 91.3349C10.0034 96.5502 15.5763 100.299 21.8876 101.994C28.199 103.688 34.8922 103.233 40.9182 100.699C46.9441 98.1657 51.9623 93.6966 55.1861 87.9927L71.7318 58.5555C74.2087 54.2791 72.9207 49.2072 69.0568 47.0193ZM67.5706 55.9698L50.9258 85.407C47.7101 91.0936 42.3811 95.27 36.105 97.022C29.8289 98.774 23.1169 97.959 17.4381 94.7553C13.6365 92.6023 10.4812 89.4633 8.30251 85.6668C6.12378 81.8703 5.00166 77.5557 5.05355 73.1746V42.4446C5.05813 41.5663 5.40103 40.7238 6.01046 40.0935C6.61989 39.4633 7.44859 39.0941 8.32307 39.0633C8.76751 39.0463 9.21032 39.1265 9.62087 39.2982C10.0314 39.4699 10.3999 39.7291 10.7009 40.0578C11.3251 40.6956 11.68 41.5506 11.6917 42.4446V54.0802C11.7498 55.2362 12.1757 56.343 12.9068 57.238C13.638 58.133 14.6358 58.7691 15.7538 59.0527C16.8758 59.3269 18.0566 59.2221 19.1133 58.7547C20.17 58.2873 21.0438 57.4832 21.5993 56.467L37.3524 28.4221C37.7586 27.6945 38.4355 27.1581 39.2348 26.9304C40.0366 26.7262 40.8856 26.8327 41.6127 27.2287C42.3116 27.6663 42.837 28.3343 43.0988 29.1183C43.2955 29.9235 43.1897 30.7732 42.8016 31.5051L29.9217 54.5775L34.281 57.0637L51.3221 26.7315C51.7283 26.0038 52.4052 25.4674 53.2046 25.2397C54.0064 25.0355 54.8554 25.1421 55.5824 25.5381C56.3073 25.9458 56.8417 26.6252 57.0686 27.4276C57.272 28.2324 57.1659 29.0846 56.7713 29.8144L39.6311 60.0472L43.9905 62.5335L56.9695 39.5605C57.3757 38.8329 58.0526 38.2965 58.8519 38.0688C59.6537 37.8646 60.5027 37.9711 61.2298 38.3671C61.9547 38.7748 62.489 39.4543 62.7159 40.2567C62.9193 41.0615 62.8132 41.9137 62.4187 42.6435L57.9602 50.5L47.5572 68.7988L51.9166 71.2851L62.1214 52.8868C62.597 52.0355 63.3756 51.3961 64.3011 51.0967C64.6882 50.955 65.1013 50.8994 65.5118 50.9337C65.9224 50.9681 66.3206 51.0915 66.6789 51.2956C67.3705 51.8311 67.8429 52.602 68.0072 53.4631C68.1715 54.3241 68.0162 55.2157 67.5706 55.9698Z" fill="#2F2F2F"/>
</svg>
